<svg width="14" height="14" viewBox="0 0 14 14" fill="none" xmlns="http://www.w3.org/2000/svg">
<path d="M0.812109 12.7055L0.191405 12.0859C0.0686783 11.9629 -0.000244141 11.7962 -0.000244141 11.6225C-0.000244141 11.4487 0.0686783 11.282 0.191405 11.159L4.40234 6.92726L0.191405 2.69609C0.0686783 2.57307 -0.000244141 2.40639 -0.000244141 2.23261C-0.000244141 2.05884 0.0686783 1.89216 0.191405 1.76914L0.812109 1.14843C0.935178 1.02537 1.10209 0.956238 1.27613 0.956238C1.45017 0.956238 1.61709 1.02537 1.74016 1.14843L7.05469 6.46324C7.17775 6.58631 7.24688 6.75322 7.24688 6.92726C7.24688 7.1013 7.17775 7.26822 7.05469 7.39128L1.74016 12.7055C1.61709 12.8286 1.45017 12.8977 1.27613 12.8977C1.10209 12.8977 0.935178 12.8286 0.812109 12.7055Z" fill="#C3C8D2"/>
<path d="M13.8748 11.5217V12.3967C13.8748 12.5707 13.8317 12.7376 13.7549 12.8607C13.6782 12.9838 13.5742 13.0529 13.4657 13.0529H8.28385C8.17535 13.0529 8.0713 12.9838 7.99458 12.8607C7.91786 12.7376 7.87476 12.5707 7.87476 12.3967V11.5217C7.87476 11.3476 7.91786 11.1807 7.99458 11.0576C8.0713 10.9346 8.17535 10.8654 8.28385 10.8654H13.4657C13.5742 10.8654 13.6782 10.9346 13.7549 11.0576C13.8317 11.1807 13.8748 11.3476 13.8748 11.5217Z" fill="#C3C8D2"/>
</svg>
