<svg width="14" height="12" viewBox="0 0 14 12" fill="none" xmlns="http://www.w3.org/2000/svg">
<path d="M13.6137 3.18907L7.51189 0.84571C7.17939 0.718015 6.82064 0.718015 6.48836 0.84571L0.386325 3.18907C-0.128612 3.38677 -0.128612 4.23798 0.386325 4.43567L1.45011 4.84419C1.2167 5.20485 1.0732 5.64481 1.05898 6.12661C0.848325 6.27755 0.700013 6.54989 0.700013 6.87501C0.700013 7.16977 0.824263 7.41778 1.0032 7.57637L0.444731 10.7176C0.396169 10.9908 0.562419 11.25 0.7862 11.25H2.01361C2.23761 11.25 2.40386 10.9908 2.35529 10.7176L1.79683 7.57637C1.97576 7.41778 2.10001 7.16977 2.10001 6.87501C2.10001 6.55864 1.95848 6.29395 1.75745 6.14028C1.77408 5.72958 1.94208 5.36645 2.21004 5.13622L6.48814 6.7793C6.68633 6.85532 7.06651 6.9502 7.51167 6.7793L13.6137 4.43595C14.1289 4.23798 14.1289 3.38704 13.6137 3.18907ZM7.71729 7.61575C7.0932 7.85528 6.56142 7.72294 6.28251 7.61575L3.1102 6.39759L2.80001 9.50001C2.80001 10.4666 4.68039 11.25 7.00001 11.25C9.31964 11.25 11.2 10.4666 11.2 9.50001L10.8898 6.39731L7.71729 7.61575Z" fill="#C3C8D2"/>
</svg>
