<svg width="12" height="14" viewBox="0 0 12 14" fill="none" xmlns="http://www.w3.org/2000/svg">
<path d="M6.00022 0C5.52611 0 5.14308 0.391016 5.14308 0.875V1.4C3.18772 1.80469 1.71451 3.57109 1.71451 5.6875V6.20156C1.71451 7.48672 1.25111 8.72812 0.415398 9.69063L0.217184 9.91758C-0.00781601 10.1746 -0.0613875 10.5437 0.0752197 10.8582C0.211827 11.1727 0.519863 11.375 0.857363 11.375H11.1431C11.4806 11.375 11.7859 11.1727 11.9252 10.8582C12.0645 10.5437 12.0083 10.1746 11.7833 9.91758L11.585 9.69063C10.7493 8.72812 10.2859 7.48945 10.2859 6.20156V5.6875C10.2859 3.57109 8.81272 1.80469 6.85736 1.4V0.875C6.85736 0.391016 6.47433 0 6.00022 0ZM7.21361 13.4887C7.53504 13.1605 7.71451 12.7148 7.71451 12.25H6.00022H4.28593C4.28593 12.7148 4.4654 13.1605 4.78683 13.4887C5.10826 13.8168 5.54486 14 6.00022 14C6.45558 14 6.89218 13.8168 7.21361 13.4887Z" fill="#C3C8D2"/>
</svg>
