<svg width="12" height="12" viewBox="0 0 12 12" fill="none" xmlns="http://www.w3.org/2000/svg">
<path d="M6.85715 1.1875C6.85715 0.703516 6.47411 0.3125 6 0.3125C5.5259 0.3125 5.14286 0.703516 5.14286 1.1875V5.125H1.28572C0.811609 5.125 0.428574 5.51602 0.428574 6C0.428574 6.48398 0.811609 6.875 1.28572 6.875H5.14286V10.8125C5.14286 11.2965 5.5259 11.6875 6 11.6875C6.47411 11.6875 6.85715 11.2965 6.85715 10.8125V6.875H10.7143C11.1884 6.875 11.5714 6.48398 11.5714 6C11.5714 5.51602 11.1884 5.125 10.7143 5.125H6.85715V1.1875Z" fill="#DFE8F2"/>
</svg>
