<?xml version="1.0" standalone="no"?>
<!DOCTYPE svg PUBLIC "-//W3C//DTD SVG 20010904//EN"
 "http://www.w3.org/TR/2001/REC-SVG-20010904/DTD/svg10.dtd">
<svg version="1.0" xmlns="http://www.w3.org/2000/svg"
 width="700.000000pt" height="700.000000pt" viewBox="0 0 700.000000 700.000000"
 preserveAspectRatio="xMidYMid meet">
<metadata>
Created by potrace 1.14, written by Peter Selinger 2001-2017
</metadata>
<g transform="translate(0.000000,700.000000) scale(0.100000,-0.100000)"
fill="#000000" stroke="none">
<path d="M3148 6995 c-2 -1 -32 -5 -68 -9 -36 -3 -114 -15 -175 -25 -730 -128
-1388 -475 -1910 -1010 -98 -100 -101 -104 -209 -236 -344 -419 -610 -975
-710 -1485 -8 -41 -17 -84 -19 -95 -3 -11 -8 -40 -12 -65 -3 -25 -9 -58 -11
-74 -3 -16 -7 -50 -9 -75 -3 -25 -8 -82 -12 -126 -15 -157 -9 -550 12 -709 2
-17 6 -56 10 -86 5 -44 44 -252 60 -320 57 -238 162 -525 269 -740 89 -176
127 -241 237 -405 283 -423 626 -749 1104 -1051 103 -65 347 -185 500 -247 98
-39 320 -112 415 -137 180 -46 360 -78 533 -95 l57 -6 0 296 -1 295 -27 1
c-15 0 -36 2 -47 3 -11 2 -45 6 -75 10 -30 4 -124 23 -209 43 -713 163 -1330
583 -1753 1193 -142 204 -271 460 -356 705 -33 95 -96 333 -106 400 -3 22 -10
63 -16 90 -23 122 -34 273 -34 465 0 134 11 347 19 360 1 3 5 28 9 57 10 86
44 252 71 348 14 50 28 98 30 108 2 11 27 80 55 155 254 686 774 1266 1429
1592 64 32 141 68 171 80 30 12 64 26 75 31 130 57 467 147 617 165 29 4 73 9
98 13 l45 6 3 292 2 292 -30 -1 c-16 -1 -31 -2 -32 -3z"/>
<path d="M3792 6708 l3 -293 45 -6 c25 -4 72 -10 105 -14 32 -3 62 -8 65 -10
3 -2 25 -6 50 -10 25 -4 47 -8 51 -10 3 -2 21 -7 39 -10 118 -21 351 -98 520
-173 339 -149 625 -346 890 -612 63 -64 124 -127 135 -140 67 -83 111 -136
116 -140 18 -15 166 -241 220 -335 64 -112 159 -312 199 -420 44 -120 109
-344 124 -430 3 -16 8 -39 10 -50 4 -21 22 -135 31 -195 24 -166 24 -589 1
-717 -2 -10 -7 -43 -11 -73 -4 -30 -9 -64 -11 -75 -2 -11 -7 -33 -9 -50 -24
-136 -94 -374 -157 -535 -64 -161 -192 -406 -280 -533 -43 -62 -153 -212 -163
-223 -5 -6 -30 -35 -55 -64 -48 -58 -232 -245 -291 -296 -379 -331 -860 -569
-1342 -665 -29 -6 -62 -12 -74 -15 -33 -6 -79 -13 -150 -20 l-63 -7 0 -293 0
-294 58 5 c31 3 71 7 87 10 17 2 53 7 80 10 28 4 57 8 65 10 8 3 33 7 55 11
68 10 285 63 390 95 470 144 984 436 1321 753 249 234 396 407 568 666 234
354 379 683 483 1095 19 77 37 154 39 170 3 17 6 39 8 50 2 11 7 40 10 65 4
25 9 52 11 60 2 8 7 47 11 85 3 39 8 84 11 100 8 59 10 512 2 597 -21 226 -44
366 -90 555 -274 1122 -1095 2050 -2171 2452 -258 97 -591 178 -803 197 -27 2
-69 7 -93 9 l-42 6 2 -293z"/>
<path d="M3479 5836 c-2 -2 -58 -6 -124 -10 -66 -3 -149 -11 -185 -17 -36 -6
-77 -12 -92 -14 -50 -7 -194 -44 -293 -75 -465 -148 -899 -464 -1181 -863 -40
-56 -67 -99 -128 -200 -101 -170 -216 -471 -256 -672 -5 -27 -12 -61 -15 -75
-3 -14 -8 -46 -11 -72 l-7 -48 296 0 295 0 11 63 c18 101 79 283 133 397 119
249 294 466 508 631 136 106 232 160 440 252 79 35 226 72 400 102 75 13 376
13 465 -1 133 -20 257 -51 365 -91 100 -37 256 -112 301 -144 15 -10 30 -19
33 -19 4 0 12 -4 19 -10 7 -5 50 -38 97 -72 324 -238 595 -665 661 -1044 l11
-64 295 0 296 0 -7 53 c-4 28 -14 84 -22 122 -8 39 -17 80 -20 93 -14 67 -79
263 -118 353 -262 614 -769 1085 -1396 1299 -52 17 -102 33 -110 35 -8 2 -55
13 -105 25 -49 12 -101 24 -115 26 -124 20 -241 32 -324 33 -55 1 -103 4 -107
6 -3 3 -8 3 -10 1z"/>
<path d="M3355 4658 c-317 -37 -634 -231 -820 -504 -249 -364 -266 -860 -43
-1239 162 -275 409 -461 723 -545 172 -46 386 -46 572 0 410 103 735 427 844
840 44 171 44 406 -1 580 -146 566 -690 936 -1275 868z m338 -609 c80 -27 185
-97 242 -162 56 -63 121 -192 136 -267 69 -362 -198 -694 -566 -702 -47 -1
-131 12 -185 27 -90 26 -208 108 -272 188 -102 129 -148 300 -123 462 17 112
78 228 166 316 156 157 388 210 602 138z"/>
<path d="M1190 3190 c0 -37 50 -268 79 -365 77 -258 200 -500 373 -730 82
-110 97 -127 206 -239 294 -299 683 -520 1092 -620 116 -28 260 -53 360 -61
81 -7 350 -7 410 0 345 40 592 114 870 258 273 141 522 346 724 592 225 275
373 572 460 920 24 99 29 125 42 217 l6 47 -293 -2 -293 -2 -8 -30 c-4 -16
-10 -43 -12 -60 -3 -16 -16 -66 -30 -111 -123 -409 -387 -758 -749 -987 -204
-130 -446 -216 -712 -255 -68 -9 -367 -8 -435 2 -402 60 -721 215 -1001 487
-148 144 -262 303 -354 494 -57 118 -118 299 -136 402 l-11 63 -294 -1 c-278
-1 -294 -2 -294 -19z"/>
</g>
</svg>
